<?xml version="1.0" encoding="utf-8"?>
<!-- Generator: Adobe Illustrator 16.0.0, SVG Export Plug-In . SVG Version: 6.00 Build 0)  -->
<!DOCTYPE svg PUBLIC "-//W3C//DTD SVG 1.1//EN" "http://www.w3.org/Graphics/SVG/1.1/DTD/svg11.dtd">
<svg version="1.1" id="Layer_1" xmlns="http://www.w3.org/2000/svg" xmlns:xlink="http://www.w3.org/1999/xlink" x="0px" y="0px"
	 width="64px" height="64px" viewBox="0 0 64 64" enable-background="new 0 0 64 64" xml:space="preserve">
<g>
	<g>
		<path fill="#F15249" d="M44.7,39.4l13.9-13.9c4.9-4.9,4.9-12.9,0-17.8l-2.4-2.4c-4.9-4.9-12.9-4.9-17.8,0L24.6,19.3L44.7,39.4z"/>
		<path fill="#3AC2F2" d="M19.2,24.6L5.3,38.5c-4.9,4.9-4.9,12.9,0,17.8l2.4,2.4c4.9,4.9,12.9,4.9,17.8,0l13.9-13.9L19.2,24.6z"/>
	</g>
	<g>
		<path fill="#C93131" d="M36,30.7l8.7,8.7l13.9-13.9c4.9-4.9,4.9-12.9,0-17.8"/>
		<path fill="#009CC6" d="M7.7,58.7c4.9,4.9,12.9,4.9,17.8,0l13.9-13.9l-8.9-8.9"/>
	</g>
</g>
</svg>
